#!OML:ASF F:\VICON\USERDATA\INSTALL\rory3\rory3.ASF
:FULLY-SPECIFIED
:DEGREES
10
root 0.22235661722744265 17.757198118283288 -24.963312156422013 6.76225846797149 1.4178576237980336 -4.1922997485153735
lfemur -47.13848001833535 5.591118002142167 -15.46360756969961
ltibia 89.55155480600482
lfoot 4.34362564806356 -15.860481825784625
ltoes -3.3475552317771644
rfemur -5.820526520923144 7.662260894293051 34.78028684452433
rtibia 39.29355293919049
rfoot -12.211810008029268 -8.536916924265803
rtoes -20.553819847941163
lowerback 16.104770492383096 0.7772943428031052 4.846694646097889
upperback -1.2695972927298957 2.1780255249823655 2.060507659158641
thorax -10.403861265714617 0.839495077786353 -0.7658462633389003
lowerneck -19.4715940963403 -5.550687983723948 -2.523153936955243
upperneck 17.37821937651725 -7.538516538389141 2.570087217275176
head 8.685746587735636 -3.391246267798026 0.33602670153207304
lclavicle -1.9521772313540973e-15 1.1013515609315595e-15
lhumerus -62.54294437001316 -7.541498820722138 99.64205359311981
lradius 108.22738068556731
lwrist 40.284217245877535
lhand -14.622982523111418 8.473122293863785
lfingers 7.125020000000001
lthumb 11.528930299932489 38.23318146912485
rclavicle -1.9521772313540973e-15 1.1013515609315595e-15
rhumerus -34.92488663942912 18.007785093817166 -102.26303494925828
rradius 114.51908005142096
rwrist -25.972130857282338
rhand -26.328301409581833 64.04886250861622
rfingers 7.125020000000001
rthumb 0.22574191740996485 31.152703858449232
11
root 0.24857356432898936 18.004206351169312 -23.92036997719172 6.282989051366592 2.2585874726134527 -3.84577886859411
lfemur -47.36594601642727 4.5718120477379385 -16.74979803828212
ltibia 82.43770797716715
lfoot 1.6283551312724494 -14.843392671464468
ltoes -11.616618610422137
rfemur -0.8266556641509872 6.57606718408 33.69028427696809
rtibia 35.960038756166995
rfoot -4.470597757123544 -5.431047156610839
rtoes -21.33494601194803
lowerback 15.055071683428151 1.046052751830896 4.91674384352336
upperback -1.306908044718586 2.4949263073274066 2.005933103844039
thorax -9.817804928036033 0.9995073645106133 -0.8915612277542857
lowerneck -18.24795839894642 -5.701846841070365 -2.408469168287325
upperneck 16.246550994087023 -7.7642890350177725 2.5692757463599176
head 8.2024104850942 -3.519837567757004 0.3346672210848703
lclavicle -1.9521770928064995e-15 1.1013516301560593e-15
lhumerus -64.83386874006764 -5.605668881403518 98.99443795478646
lradius 108.74565268231433
lwrist 40.98783468143485
lhand -14.677321638405981 7.7534341559287085
lfingers 7.125020000000001
lthumb 11.47647074315227 37.50924419770505
rclavicle -1.9521770928064995e-15 1.1013516301560593e-15
rhumerus -34.97243767162699 18.830145711930744 -101.6891069760977
rradius 116.22484260608789
rwrist -23.10567757604425
rhand -25.876585302650874 231.49283331018128
rfingers 7.125020000000001
rthumb 0.6608878952833322 44.52402346547121
12
root 0.2743407302602964 18.249870582788173 -22.854540095311478 5.4602465867025 3.6792883727898937 -3.0926103119549087
lfemur -46.409901269787 3.0281291181413286 -18.206724677420222
ltibia 74.00219677733493
lfoot 1.7184869084571845 -13.487998692922188
ltoes -15.36859320591801
rfemur 4.439963940157856 4.681376447390832 31.910333969967198
rtibia 32.149737828487886
rfoot 6.2451781216370215 -2.3220451386803442
rtoes -20.736591031335884
lowerback 13.275346534718325 1.1189389944222339 5.453362034893175
upperback -0.19383693103161348 2.4505797639337796 1.4437062900601412
thorax -7.374047024432572 1.0210161647426992 -1.6218763518326031
lowerneck -19.83683537374869 -6.093611647688716 -1.8858469353133223
upperneck 16.398948802430507 -8.413109189542807 2.7395061149630875
head 8.490072168085154 -3.757431130424992 0.2306820193962571
lclavicle -1.952177068926089e-15 1.1013516857944687e-15
lhumerus -64.68807105952236 -4.66694965951463 97.84183170719118
lradius 108.99400287072353
lwrist 42.458362535263475
lhand -15.697882161946431 8.571288446345799
lfingers 7.125020000000001
lthumb 10.49184472215107 38.36611112734786
rclavicle -1.952177068926089e-15 1.1013516857944687e-15
rhumerus -33.98498534330431 19.84468843101652 -101.31060844934625
rradius 117.15409002616134
rwrist -11.702134843661026
rhand -38.767174485868125 131.4207565664118
rfingers 7.125020000000001
rthumb -11.758452435094343 36.09725802515284
13
root 0.30467022319040105 18.440718762724984 -21.782212433441565 4.805189403689491 5.0282555409554615 -2.48853675931781
lfemur -44.78177184868356 1.6311959631354598 -19.38569591317155
ltibia 65.06028700057277
lfoot 2.1352310845253255 -12.740059486234996
ltoes -14.335366635588596
rfemur 9.078054878429349 3.8566803584751916 30.622327104125368
rtibia 29.01692091724263
rfoot 16.233982017409517 -2.5242194644012956
rtoes -15.47238678761461
lowerback 12.25356774325682 0.9840071845616876 5.615590911550873
upperback -0.5019201482709533 2.2246211653004364 1.3069314473141076
thorax -7.165020420991477 0.9066189183620107 -1.76927492170122
lowerneck -18.674618016455995 -6.152694178519173 -2.1023268300611213
upperneck 16.604576827008415 -8.477985712415414 2.6950456235160107
head 8.378742339754721 -3.8132508375380723 0.2588587569167868
lclavicle -1.9521771323326745e-15 1.1013516210986495e-15
lhumerus -67.41596371467809 -3.0641805465525596 97.02360764800656
lradius 109.3756546079225
lwrist 43.741894091647936
lhand -15.309929140221696 8.458784203948785
lfingers 7.125020000000001
lthumb 10.866154218443178 38.241494474299856
rclavicle -1.9521771323326745e-15 1.1013516210986495e-15
rhumerus -35.45662650898825 21.29714480050879 -101.12407243705833
rradius 117.89506844086596
rwrist -3.849213621551524
rhand -47.79248033492766 -155.92712140504537
rfingers 7.125020000000001
rthumb -20.456312434599912 13.06123409341686
